<svg xmlns="http://www.w3.org/2000/svg" width="33" height="35.75" viewBox="0 0 33 35.75">
  <metadata><?xpacket begin="﻿" id="W5M0MpCehiHzreSzNTczkc9d"?>
<x:xmpmeta xmlns:x="adobe:ns:meta/" x:xmptk="Adobe XMP Core 5.6-c138 79.159824, 2016/09/14-01:09:01        ">
   <rdf:RDF xmlns:rdf="http://www.w3.org/1999/02/22-rdf-syntax-ns#">
      <rdf:Description rdf:about=""/>
   </rdf:RDF>
</x:xmpmeta>
                                                                                                    
                                                                                                    
                                                                                                    
                                                                                                    
                                                                                                    
                                                                                                    
                                                                                                    
                                                                                                    
                                                                                                    
                                                                                                    
                                                                                                    
                                                                                                    
                                                                                                    
                                                                                                    
                                                                                                    
                                                                                                    
                                                                                                    
                                                                                                    
                                                                                                    
                                                                                                    
                           
<?xpacket end="w"?></metadata>
<defs>
    <style>
      .cls-1 {
        fill: #0777ba;
        fill-rule: evenodd;
      }
    </style>
  </defs>
  <path class="cls-1" d="M47.486,368.252c3.9-.066,7.6.429,8.833,0.962-1.22.278-4.818-.233-8.833-0.962m-7.569-19.6,5.049,5.049-4.039,4.038-5.048-5.048Zm8.771-8.771,5.049,5.048L49.7,348.971l-5.048-5.048Zm-6.347,27.372c-1.936-.393-3.777-0.782-5.3-1.1-1.806-.382-3.324-0.7-4.578-0.953l3.209-3.209c0.075,0.005.149,0.022,0.224,0.022a4.268,4.268,0,0,0,3.029-1.255l1.34-1.34,1.169-1.169,4.038-4.039,4.733-4.732,4.039-4.039,1.036-1.037,1.967-1.966a4.284,4.284,0,1,0-6.058-6.058l-1.967,1.966-1.036,1.037-4.039,4.039-4.733,4.732-4.038,4.039-1.169,1.169-1.34,1.34a4.257,4.257,0,0,0-1.234,3.253l-5.294,5.294a2.856,2.856,0,1,0,4.039,4.039l0.869-.87c1.529,0.3,3.481.707,5.5,1.134q1.189,0.252,2.3.485c-7.16,2-10.508,1.491-11.367.846a0.434,0.434,0,0,1-.233-0.368,0.714,0.714,0,1,0-1.428,0,1.841,1.841,0,0,0,.8,1.512,6.544,6.544,0,0,0,3.795.856,36.271,36.271,0,0,0,9.651-1.712A18.716,18.716,0,0,1,42.3,368.7c9.153,1.851,13.889,2.483,15.174,1.546a1.146,1.146,0,0,0,.477-1.474c-0.883-1.788-9.582-2.483-15.609-1.517" transform="translate(-25.5 -335.125)"/>
</svg>
