<svg xmlns="http://www.w3.org/2000/svg" width="29.688" height="27.438" viewBox="0 0 29.688 27.438">
  <metadata><?xpacket begin="﻿" id="W5M0MpCehiHzreSzNTczkc9d"?>
<x:xmpmeta xmlns:x="adobe:ns:meta/" x:xmptk="Adobe XMP Core 5.6-c138 79.159824, 2016/09/14-01:09:01        ">
   <rdf:RDF xmlns:rdf="http://www.w3.org/1999/02/22-rdf-syntax-ns#">
      <rdf:Description rdf:about=""/>
   </rdf:RDF>
</x:xmpmeta>
                                                                                                    
                                                                                                    
                                                                                                    
                                                                                                    
                                                                                                    
                                                                                                    
                                                                                                    
                                                                                                    
                                                                                                    
                                                                                                    
                                                                                                    
                                                                                                    
                                                                                                    
                                                                                                    
                                                                                                    
                                                                                                    
                                                                                                    
                                                                                                    
                                                                                                    
                                                                                                    
                           
<?xpacket end="w"?></metadata>
<defs>
    <style>
      .cls-1 {
        fill: #0777ba;
        fill-rule: evenodd;
      }
    </style>
  </defs>
  <path class="cls-1" d="M53.857,755.572a1.009,1.009,0,0,1-1.143,1.142H50.429a1.009,1.009,0,0,1-1.143-1.142v-1.943l-0.571.742H29.286l-0.571-.742v1.943a1.01,1.01,0,0,1-1.143,1.142H25.286a1.009,1.009,0,0,1-1.142-1.142v-5.886a24.976,24.976,0,0,1,.514-6.343q0.686-2,1.372-2.286,1.085-2.856,1.942-4.8,1.372-3.085,2.457-3.371a68.522,68.522,0,0,1,7.2-.172h2.743a68.541,68.541,0,0,1,7.2.172q1.085,0.287,2.457,3.371,0.857,1.943,1.942,4.8,0.686,0.287,1.372,2.286a24.976,24.976,0,0,1,.514,6.343v5.886Zm-2.8-11.144a4.167,4.167,0,0,0-2.286.858,5.087,5.087,0,0,0-1.429,1.428q-2.286,2.629-1.829,2.572H32.486q0.456,0.057-1.829-2.572a5.113,5.113,0,0,0-1.429-1.428,4.17,4.17,0,0,0-2.286-.858q-1.715,0-1.714,2.286a1.715,1.715,0,0,0,.4,1.257,1.247,1.247,0,0,0,.8.229h4.514q-0.058-.057.057,0.114a13.708,13.708,0,0,0,1.029,1.543H45.971A14.046,14.046,0,0,0,47,748.314q0.114-.171.057-0.114h4.514a1.249,1.249,0,0,0,.8-0.229,1.717,1.717,0,0,0,.4-1.257Q52.772,744.43,51.057,744.428ZM28.2,740.771q1.428-.055,10.8-0.057t10.8,0.057a0.505,0.505,0,0,0,.572-0.571v-0.171q-0.4-.972-1.372-3.258-0.857-2-1.6-2.228H30.6q-0.743.23-1.6,2.228-0.973,2.344-1.372,3.258V740.2A0.5,0.5,0,0,0,28.2,740.771Zm8.686-9.2H31a1.143,1.143,0,1,1,0-2.286h5.886A1.143,1.143,0,1,1,36.886,731.572Zm4.057-2.286a1.143,1.143,0,1,0,0,2.286h5.886a1.143,1.143,0,0,0,0-2.286H40.943Z" transform="translate(-24.156 -729.281)"/>
</svg>
