<svg xmlns="http://www.w3.org/2000/svg" width="22" height="22" viewBox="0 0 22 22">
  <metadata><?xpacket begin="﻿" id="W5M0MpCehiHzreSzNTczkc9d"?>
<x:xmpmeta xmlns:x="adobe:ns:meta/" x:xmptk="Adobe XMP Core 5.6-c138 79.159824, 2016/09/14-01:09:01        ">
   <rdf:RDF xmlns:rdf="http://www.w3.org/1999/02/22-rdf-syntax-ns#">
      <rdf:Description rdf:about=""/>
   </rdf:RDF>
</x:xmpmeta>
                                                                                                    
                                                                                                    
                                                                                                    
                                                                                                    
                                                                                                    
                                                                                                    
                                                                                                    
                                                                                                    
                                                                                                    
                                                                                                    
                                                                                                    
                                                                                                    
                                                                                                    
                                                                                                    
                                                                                                    
                                                                                                    
                                                                                                    
                                                                                                    
                                                                                                    
                                                                                                    
                           
<?xpacket end="w"?></metadata>
<defs>
    <style>
      .cls-1 {
        fill: #0777ba;
        fill-rule: evenodd;
      }
    </style>
  </defs>
  <path id="search-icon" class="cls-1" d="M330.25,157.5a0.694,0.694,0,0,0-.492-0.234,0.5,0.5,0,0,0-.422.234l-1.289-1.312a7.739,7.739,0,0,0,1.687-4.9,7.992,7.992,0,1,0-14.918,4.008,7.806,7.806,0,0,0,2.918,2.918,7.891,7.891,0,0,0,4.008,1.066,7.739,7.739,0,0,0,4.9-1.687l1.312,1.289a0.846,0.846,0,0,0-.164.492,0.572,0.572,0,0,0,.164.422l5.3,5.3a0.665,0.665,0,0,0,.48.211,0.465,0.465,0,0,0,.411-0.211l1.406-1.406a0.576,0.576,0,0,0,0-.891Zm-8.508-12.211a6,6,0,1,1-4.242,1.758A5.781,5.781,0,0,1,321.742,145.291Z" transform="translate(-313.75 -143.312)"/>
</svg>
