<svg xmlns="http://www.w3.org/2000/svg" width="34.25" height="36.312" viewBox="0 0 34.25 36.312">
  <metadata><?xpacket begin="﻿" id="W5M0MpCehiHzreSzNTczkc9d"?>
<x:xmpmeta xmlns:x="adobe:ns:meta/" x:xmptk="Adobe XMP Core 5.6-c138 79.159824, 2016/09/14-01:09:01        ">
   <rdf:RDF xmlns:rdf="http://www.w3.org/1999/02/22-rdf-syntax-ns#">
      <rdf:Description rdf:about=""/>
   </rdf:RDF>
</x:xmpmeta>
                                                                                                    
                                                                                                    
                                                                                                    
                                                                                                    
                                                                                                    
                                                                                                    
                                                                                                    
                                                                                                    
                                                                                                    
                                                                                                    
                                                                                                    
                                                                                                    
                                                                                                    
                                                                                                    
                                                                                                    
                                                                                                    
                                                                                                    
                                                                                                    
                                                                                                    
                                                                                                    
                           
<?xpacket end="w"?></metadata>
<defs>
    <style>
      .cls-1 {
        fill: #0777ba;
        fill-rule: evenodd;
      }
    </style>
  </defs>
  <path class="cls-1" d="M54.506,869.029l-1.086-.515a14.482,14.482,0,0,0-3.6-15.143,14.164,14.164,0,0,0-10.457-4.4,14.923,14.923,0,0,0-14.857,14.857,14.452,14.452,0,0,0,3.771,9.942,14.3,14.3,0,0,0,9.371,4.858v1.142a16.021,16.021,0,0,1,1.714-31.942,15.261,15.261,0,0,1,11.257,4.743,15.259,15.259,0,0,1,4.743,11.257A16.006,16.006,0,0,1,54.506,869.029ZM33.649,850.114l-4,4.057a13.159,13.159,0,0,0-4,9.658,13.376,13.376,0,0,0,3.429,9.143,13.209,13.209,0,0,0,8.571,4.514v-7.029H35.535a0.38,0.38,0,0,1-.4-0.457v-0.8a0.41,0.41,0,0,1,.229-0.4q0.514-.171,1.029-0.4a4.333,4.333,0,0,1,.743-0.172v-9.142H37.078c-0.42.038-.838,0.057-1.257,0.057H35.249a0.366,0.366,0,0,1-.4-0.343l-0.114-.743a0.449,0.449,0,0,1,.343-0.457,17.075,17.075,0,0,0,2.171-.686,11.541,11.541,0,0,0,2.171-1.085,0.507,0.507,0,0,1,.228-0.058h1.257a0.354,0.354,0,0,1,.4.4v6.458L52.392,868a12.77,12.77,0,0,0,.686-4.171,13.069,13.069,0,0,0-4.057-9.658,13.07,13.07,0,0,0-9.657-4.057H33.649Zm6.8,33.486V865.314l16.343,7.943a0.462,0.462,0,0,0,.743-0.228,0.521,0.521,0,0,0-.229-0.8l-17.2-8.285a0.428,0.428,0,0,0-.514,0,0.516,0.516,0,0,0-.286.457v19.2A0.572,0.572,0,0,0,40.449,883.6Zm1.143-2.743a14.522,14.522,0,0,0,7.486-2.285,14.324,14.324,0,0,0,4.971-5.372l-1.028-.514a12.448,12.448,0,0,1-11.429,7.028v1.143Z" transform="translate(-23.375 -847.844)"/>
</svg>
