<svg xmlns="http://www.w3.org/2000/svg" width="32.844" height="36.876" viewBox="0 0 32.844 36.876">
  <metadata><?xpacket begin="﻿" id="W5M0MpCehiHzreSzNTczkc9d"?>
<x:xmpmeta xmlns:x="adobe:ns:meta/" x:xmptk="Adobe XMP Core 5.6-c138 79.159824, 2016/09/14-01:09:01        ">
   <rdf:RDF xmlns:rdf="http://www.w3.org/1999/02/22-rdf-syntax-ns#">
      <rdf:Description rdf:about=""/>
   </rdf:RDF>
</x:xmpmeta>
                                                                                                    
                                                                                                    
                                                                                                    
                                                                                                    
                                                                                                    
                                                                                                    
                                                                                                    
                                                                                                    
                                                                                                    
                                                                                                    
                                                                                                    
                                                                                                    
                                                                                                    
                                                                                                    
                                                                                                    
                                                                                                    
                                                                                                    
                                                                                                    
                                                                                                    
                                                                                                    
                           
<?xpacket end="w"?></metadata>
<defs>
    <style>
      .cls-1 {
        fill: #0777ba;
        fill-rule: evenodd;
      }
    </style>
  </defs>
  <path class="cls-1" d="M55.207,918.543a0.546,0.546,0,0,1,.171.629l-9.257,22.914a0.486,0.486,0,0,1-.514.342,0.507,0.507,0,0,1-.228-0.057l-12.171-4.457a0.511,0.511,0,0,1-.343-0.285,0.6,0.6,0,0,1,0-.515l1.085-2.171-11.028-5.257a0.508,0.508,0,0,1-.286-0.343,0.407,0.407,0,0,1,.057-0.457l3.428-6.057,9.6-16.972a0.614,0.614,0,0,1,.572-0.285l12.171,1.257h0.057a0.162,0.162,0,0,0,.114.057h0.057v0.057H48.75V907h0.057l0.057,0.057a0.05,0.05,0,0,0,.057.057h0v0.115l0.057,0.057v0.228a0.05,0.05,0,0,1-.057.057v0.058l-1.543,3.257Zm-26.628,5.885-4.515,4.515,0.857,0.4,4.571-4.571Zm-3.2,2,2.286-2.342-0.8-.286Zm0.343,3.315,0.857,0.4,4.743-4.743-0.914-.343Zm1.657,0.8,0.857,0.4,4.857-4.914-0.914-.286Zm1.657,0.8,0.857,0.4,5.029-5.028-0.915-.344Zm1.657,0.8,0.857,0.4,5.2-5.2L35.835,927Zm3.257-20.8-1.657,2.914,7.142-7.2-1.085-.114Zm-1.6,21.543,0.857,0.4,5.314-5.315-0.915-.342Zm9.314-25.6-1.085-.114-7.714,7.714,0.971,0.286Zm-7.657,26.4,0.858,0.4L40.35,928.6l-0.915-.286Zm8.172-4.4-0.914-.343-6,6-1.086,2.114,0.114,0.057Zm1.714-21.772-1.086-.114-8.057,8.057,0.971,0.229Zm0.057,22.4-0.914-.343-7.829,7.886,0.914,0.343Zm-6.685-23.085-0.743-.057-1.029,1.771Zm8.857,0.914-1.085-.114-8.343,8.342,0.971,0.286Zm-0.343,22.8-0.914-.343-7.886,7.886,0.914,0.342Zm1.486-22.686-8.686,8.628,0.971,0.287,7.143-7.143,0.857-1.715Zm0.286,23.315-0.914-.286-7.829,7.886,0.857,0.285Zm-1.943-19.2-5.085,5.086,0.971,0.229,2.972-2.972Zm3.429,19.772-0.571-.229L40.578,939.4l0.914,0.343,7.257-7.315Zm5.143-12.686-7.314-7.086-2.915,6.057,1.657,0.457a0.519,0.519,0,0,1,.343.287,0.6,0.6,0,0,1,0,.514l-4.171,8.628,7.714,2.743ZM43.264,940.371l3.829-3.828,0.857-2.058-5.6,5.6Zm0.114-23.714-0.971.915,0.457,0.114ZM46.293,938.6l-2.114,2.114,1.086,0.4Z" transform="translate(-22.594 -905.562)"/>
</svg>
