<svg xmlns="http://www.w3.org/2000/svg" width="38.906" height="34.312" viewBox="0 0 38.906 34.312">
  <metadata><?xpacket begin="﻿" id="W5M0MpCehiHzreSzNTczkc9d"?>
<x:xmpmeta xmlns:x="adobe:ns:meta/" x:xmptk="Adobe XMP Core 5.6-c138 79.159824, 2016/09/14-01:09:01        ">
   <rdf:RDF xmlns:rdf="http://www.w3.org/1999/02/22-rdf-syntax-ns#">
      <rdf:Description rdf:about=""/>
   </rdf:RDF>
</x:xmpmeta>
                                                                                                    
                                                                                                    
                                                                                                    
                                                                                                    
                                                                                                    
                                                                                                    
                                                                                                    
                                                                                                    
                                                                                                    
                                                                                                    
                                                                                                    
                                                                                                    
                                                                                                    
                                                                                                    
                                                                                                    
                                                                                                    
                                                                                                    
                                                                                                    
                                                                                                    
                                                                                                    
                           
<?xpacket end="w"?></metadata>
<defs>
    <style>
      .cls-1 {
        fill: #0777ba;
        fill-rule: evenodd;
      }
    </style>
  </defs>
  <path class="cls-1" d="M39.648,816.149a1.2,1.2,0,1,1,0,2.4h-18.4a1.2,1.2,0,1,1,0-2.4h1.2a2.419,2.419,0,0,1,.743-1.772,2.45,2.45,0,0,1,1.714-.685H35.934a2.349,2.349,0,0,1,2.457,2.457h1.257Zm-4.4-31.314a1.071,1.071,0,0,1,1.714-.115l10.286,8.629a1.071,1.071,0,0,1,.114,1.714l-0.857.971a1.053,1.053,0,0,1-1.714.172l-1.829-1.543a0.607,0.607,0,1,0-.8.914,1.075,1.075,0,0,1,.114,1.715l-2.343,2.8,5.372,4.515a2.487,2.487,0,0,1,3.486-.286l9.657,8.343a1.1,1.1,0,0,1,.172,1.714l-3.143,3.772a1.1,1.1,0,0,1-1.714.171l-9.714-8.4a2.6,2.6,0,0,1-.857-1.657,2.426,2.426,0,0,1,.571-1.771l-5.371-4.515-2.343,2.8a1.074,1.074,0,0,1-1.714.114,0.559,0.559,0,0,0-.857.114,0.536,0.536,0,0,0,.057.857l1.886,1.543a1.074,1.074,0,0,1,.114,1.714l-0.857,1.029a1.1,1.1,0,0,1-1.714.171l-10.228-8.628a1.112,1.112,0,0,1-.171-1.772l0.857-.971a1.1,1.1,0,0,1,1.714-.171l1.829,1.6a0.518,0.518,0,0,0,.857-0.114,0.537,0.537,0,0,0-.057-0.857,1.07,1.07,0,0,1-.114-1.714l6.228-7.486a1.075,1.075,0,0,1,1.714-.115,0.518,0.518,0,0,0,.857-0.114,0.537,0.537,0,0,0-.057-0.857l-1.885-1.543a1.073,1.073,0,0,1-.115-1.714Z" transform="translate(-20.063 -784.344)"/>
</svg>
